<svg width="248" height="44" viewBox="0 0 248 44" fill="none" xmlns="http://www.w3.org/2000/svg">
<path d="M28.2307 9.16L13.6707 34.36C13.5073 34.6633 13.4257 34.9433 13.4257 35.2C13.4257 35.69 13.7873 35.97 14.5107 36.04C15.2573 36.1333 15.6307 36.3317 15.6307 36.635C15.6307 36.985 15.3273 37.265 14.7207 37.475C14.254 37.6383 13.8223 37.72 13.4257 37.72H1.66568C1.01235 37.72 0.685682 37.44 0.685682 36.88C0.685682 36.6233 0.767349 36.3433 0.930682 36.04L17.4157 7.48C17.6957 7.01333 18.0923 6.61667 18.6057 6.29C19.119 5.96333 19.609 5.8 20.0757 5.8H31.8357C32.6757 5.8 33.0957 5.99833 33.0957 6.395C33.0957 6.745 32.7923 7.025 32.1857 7.235C31.719 7.39833 31.264 7.48 30.8207 7.48C30.4007 7.48 29.9223 7.64333 29.3857 7.97C28.8723 8.29666 28.4874 8.69333 28.2307 9.16ZM42.3316 42.9L37.6766 35.025C37.5366 34.7683 37.4666 34.4417 37.4666 34.045C37.4666 33.4617 37.6066 32.9367 37.8866 32.47C38.0266 32.2367 38.0966 32.015 38.0966 31.805C38.0966 31.2683 37.7466 31 37.0466 31H25.2866C24.6566 31 24.3416 30.72 24.3416 30.16C24.3416 29.9033 24.4232 29.6233 24.5866 29.32L33.3366 14.2C33.5932 13.7333 33.9782 13.3367 34.4916 13.01C35.0049 12.6833 35.4949 12.52 35.9616 12.52H59.4816C60.1349 12.52 60.4616 12.8 60.4616 13.36C60.4616 13.6167 60.3799 13.8967 60.2166 14.2L58.2566 17.56C57.9999 18.0267 57.6032 18.4233 57.0666 18.75C56.5532 19.0767 56.0632 19.24 55.5966 19.24H47.1966C46.5666 19.24 46.2516 18.96 46.2516 18.4C46.2516 18.1433 46.3332 17.8633 46.4966 17.56L47.4766 15.88C47.6399 15.5767 47.7216 15.2967 47.7216 15.04C47.7216 14.48 47.4066 14.2 46.7766 14.2C46.3099 14.2 45.8082 14.3633 45.2716 14.69C44.7582 15.0167 44.3732 15.4133 44.1166 15.88L37.3266 27.64C37.1399 27.9433 37.0466 28.2233 37.0466 28.48C37.0466 29.04 37.3732 29.32 38.0266 29.32C38.4932 29.32 38.9832 29.1567 39.4966 28.83C40.0099 28.5033 40.4066 28.1067 40.6866 27.64L43.5916 22.6C43.8482 22.1333 44.2332 21.7367 44.7466 21.41C45.2832 21.0833 45.7849 20.92 46.2516 20.92H54.6516C55.2816 20.92 55.5966 21.2 55.5966 21.76C55.5966 22.0167 55.5149 22.2967 55.3516 22.6L43.9766 42.34C43.6266 42.9467 43.2532 43.25 42.8566 43.25C42.6466 43.25 42.4716 43.1333 42.3316 42.9ZM62.2438 12.52H85.7638C86.4172 12.52 86.7439 12.8 86.7439 13.36C86.7439 13.6167 86.6505 13.8967 86.4638 14.2L84.5388 17.56C84.2822 18.0267 83.8855 18.4233 83.3488 18.75C82.8355 19.0767 82.3455 19.24 81.8788 19.24H73.4788C72.8488 19.24 72.5338 18.96 72.5338 18.4C72.5338 18.1433 72.6155 17.8633 72.7788 17.56L73.7588 15.88C73.9222 15.5767 74.0038 15.2967 74.0038 15.04C74.0038 14.48 73.6772 14.2 73.0238 14.2C72.5805 14.2 72.0905 14.3633 71.5538 14.69C71.0405 15.0167 70.6555 15.4133 70.3988 15.88L62.6288 29.32C62.3722 29.7867 61.9755 30.1833 61.4388 30.51C60.9255 30.8367 60.4355 31 59.9688 31H51.5688C50.9388 31 50.6238 30.72 50.6238 30.16C50.6238 29.9033 50.7055 29.6233 50.8688 29.32L59.5838 14.2C59.8638 13.7333 60.2605 13.3367 60.7738 13.01C61.2872 12.6833 61.7772 12.52 62.2438 12.52ZM89.8307 12.52H113.351C113.981 12.52 114.296 12.8 114.296 13.36C114.296 13.6167 114.214 13.8967 114.051 14.2L105.301 29.32C105.044 29.7867 104.647 30.1833 104.111 30.51C103.597 30.8367 103.119 31 102.676 31H79.1557C78.5024 31 78.1757 30.72 78.1757 30.16C78.1757 29.9033 78.2574 29.6233 78.4207 29.32L82.3057 22.6C82.5857 22.1333 82.9824 21.7367 83.4957 21.41C84.009 21.0833 84.499 20.92 84.9657 20.92H96.7257C97.1924 20.92 97.6824 20.7567 98.1957 20.43C98.709 20.1033 99.1057 19.7067 99.3857 19.24L101.311 15.88C101.474 15.5767 101.556 15.2967 101.556 15.04C101.556 14.48 101.241 14.2 100.611 14.2C100.144 14.2 99.654 14.3633 99.1407 14.69C98.6274 15.0167 98.2307 15.4133 97.9507 15.88L96.9707 17.56C96.714 18.0267 96.3174 18.4233 95.7807 18.75C95.2674 19.0767 94.789 19.24 94.3457 19.24H85.9457C85.2924 19.24 84.9657 18.96 84.9657 18.4C84.9657 18.1433 85.0474 17.8633 85.2107 17.56L87.1707 14.2C87.4274 13.7333 87.8124 13.3367 88.3257 13.01C88.8624 12.6833 89.364 12.52 89.8307 12.52ZM94.5207 27.64L96.4807 24.28C96.644 23.9767 96.7257 23.6967 96.7257 23.44C96.7257 22.88 96.399 22.6 95.7457 22.6C95.279 22.6 94.789 22.7633 94.2757 23.09C93.7624 23.4167 93.3774 23.8133 93.1207 24.28L91.1607 27.64C90.9974 27.9433 90.9157 28.2233 90.9157 28.48C90.9157 29.04 91.2307 29.32 91.8607 29.32C92.3274 29.32 92.8174 29.1567 93.3307 28.83C93.8674 28.5033 94.264 28.1067 94.5207 27.64ZM123.621 42.935L118.966 35.025C118.826 34.7917 118.756 34.4767 118.756 34.08C118.756 33.4967 118.896 32.96 119.176 32.47C119.292 32.2367 119.351 32.015 119.351 31.805C119.351 31.2683 119.012 31 118.336 31H106.576C105.922 31 105.596 30.72 105.596 30.16C105.596 29.9033 105.689 29.6233 105.876 29.32L114.591 14.2C114.871 13.7333 115.267 13.3367 115.781 13.01C116.294 12.6833 116.784 12.52 117.251 12.52H125.651C126.281 12.52 126.596 12.8 126.596 13.36C126.596 13.6167 126.514 13.8967 126.351 14.2L118.581 27.64C118.417 27.9433 118.336 28.2233 118.336 28.48C118.336 29.04 118.662 29.32 119.316 29.32C119.759 29.32 120.237 29.1567 120.751 28.83C121.287 28.5033 121.684 28.1067 121.941 27.64L129.711 14.2C129.991 13.7333 130.387 13.3367 130.901 13.01C131.414 12.6833 131.904 12.52 132.371 12.52H140.771C141.401 12.52 141.716 12.8 141.716 13.36C141.716 13.6167 141.634 13.8967 141.471 14.2L125.231 42.34C124.881 42.9467 124.507 43.25 124.111 43.25C123.901 43.25 123.737 43.145 123.621 42.935ZM166.217 0.584999L170.872 8.495C171.012 8.72833 171.082 9.04333 171.082 9.44C171.082 10.0233 170.942 10.56 170.662 11.05L160.127 29.32C159.847 29.7867 159.45 30.1833 158.937 30.51C158.423 30.8367 157.933 31 157.467 31H133.947C133.293 31 132.967 30.72 132.967 30.16C132.967 29.9033 133.06 29.6233 133.247 29.32L141.962 14.2C142.242 13.7333 142.638 13.3367 143.152 13.01C143.665 12.6833 144.155 12.52 144.622 12.52H156.382C156.848 12.52 157.338 12.3567 157.852 12.03C158.365 11.7033 158.762 11.3067 159.042 10.84L164.607 1.18C164.957 0.573332 165.33 0.269999 165.727 0.269999C165.937 0.269999 166.1 0.374999 166.217 0.584999ZM149.347 27.64L156.102 15.88C156.288 15.5767 156.382 15.2967 156.382 15.04C156.382 14.48 156.055 14.2 155.402 14.2C154.935 14.2 154.445 14.3633 153.932 14.69C153.418 15.0167 153.022 15.4133 152.742 15.88L145.987 27.64C145.8 27.9433 145.707 28.2233 145.707 28.48C145.707 29.04 146.033 29.32 146.687 29.32C147.153 29.32 147.643 29.1567 148.157 28.83C148.67 28.5033 149.067 28.1067 149.347 27.64ZM171.806 12.52H195.326C195.956 12.52 196.271 12.8 196.271 13.36C196.271 13.6167 196.189 13.8967 196.026 14.2L187.276 29.32C187.019 29.7867 186.623 30.1833 186.086 30.51C185.573 30.8367 185.094 31 184.651 31H161.131C160.478 31 160.151 30.72 160.151 30.16C160.151 29.9033 160.233 29.6233 160.396 29.32L169.146 14.2C169.403 13.7333 169.788 13.3367 170.301 13.01C170.838 12.6833 171.339 12.52 171.806 12.52ZM176.496 27.64L183.286 15.88C183.449 15.5767 183.531 15.2967 183.531 15.04C183.531 14.48 183.216 14.2 182.586 14.2C182.119 14.2 181.629 14.3633 181.116 14.69C180.603 15.0167 180.206 15.4133 179.926 15.88L173.136 27.64C172.973 27.9433 172.891 28.2233 172.891 28.48C172.891 29.04 173.206 29.32 173.836 29.32C174.303 29.32 174.793 29.1567 175.306 28.83C175.843 28.5033 176.239 28.1067 176.496 27.64ZM199.113 12.52H222.633C223.263 12.52 223.578 12.8 223.578 13.36C223.578 13.6167 223.496 13.8967 223.333 14.2L214.583 29.32C214.326 29.7867 213.929 30.1833 213.393 30.51C212.879 30.8367 212.401 31 211.958 31H203.558C202.904 31 202.578 30.72 202.578 30.16C202.578 29.9033 202.659 29.6233 202.823 29.32L210.593 15.88C210.756 15.5767 210.838 15.2967 210.838 15.04C210.838 14.48 210.523 14.2 209.893 14.2C209.426 14.2 208.936 14.3633 208.423 14.69C207.909 15.0167 207.513 15.4133 207.233 15.88L199.463 29.32C199.206 29.7867 198.809 30.1833 198.273 30.51C197.759 30.8367 197.281 31 196.838 31H188.438C187.784 31 187.458 30.72 187.458 30.16C187.458 29.9033 187.539 29.6233 187.703 29.32L196.453 14.2C196.709 13.7333 197.094 13.3367 197.608 13.01C198.144 12.6833 198.646 12.52 199.113 12.52ZM234.758 5.8H246.518C247.171 5.8 247.498 6.08 247.498 6.64C247.498 6.89666 247.404 7.17666 247.218 7.48L230.733 36.04C230.476 36.5067 230.079 36.9033 229.543 37.23C229.029 37.5567 228.539 37.72 228.073 37.72H216.313C215.473 37.72 215.053 37.5217 215.053 37.125C215.053 36.775 215.356 36.495 215.963 36.285C216.453 36.1217 216.908 36.04 217.328 36.04C217.771 36.04 218.249 35.8767 218.763 35.55C219.276 35.2233 219.673 34.8267 219.953 34.36L234.478 9.16C234.664 8.85667 234.758 8.57667 234.758 8.32C234.758 7.83 234.384 7.53833 233.638 7.445C232.891 7.35167 232.518 7.165 232.518 6.885C232.518 6.535 232.821 6.255 233.428 6.045C233.918 5.88167 234.361 5.8 234.758 5.8Z" fill="#FD0827" fill-opacity="0.5"/>
</svg>
